<svg id="Layer_1" data-name="Layer 1" xmlns="http://www.w3.org/2000/svg" viewBox="0 0 1136.71 1200"><defs><style>.cls-1{fill:#64889d;}.cls-2{fill:#aabec9;fill-rule:evenodd;}</style></defs><title>logo</title><path class="cls-1" d="M597.47,1111.83l-57.27,70.25H525.87V937.41h28.58c122.21,339.27,511.92,255,508.09,30.64C1061,879.13,991.32,837.79,915.2,808.72c-246.52-94.17-479-181.6-732.52-269.41C-114.31,436.44-29-10.59,293.05.19,346.78,2,418.33,16.66,488.16,70.26l52-48.34h14.25V248.08H525.87C442.91-70.47,82.79-2.07,82.79,213.26c0,76.83,80.45,108.79,140.12,130.67C470.74,434.73,663.74,508,913.46,593.18c154.27,52.63,218.6,133.73,223.12,295.92,6.66,238.11-259.31,429.7-539.12,222.72"/><path class="cls-2" d="M47.33,710.19H18.76V958.43H33.1l55.13-70.89c117,98.81,315,99.86,414.09-33.81-49.1,56.18-361.45,182-455-143.54"/><path class="cls-2" d="M1061.7,449h28.56V222.89H1076l-52,48.66C891.33,168.92,703.6,177,607.5,304.06c57.79-50.51,136.61-69.57,211.4-69.57,127.71,0,211.87,96,242.8,214.54"/></svg>