<?xml version="1.0" encoding="UTF-8" standalone="no"?>
<svg width="477px" height="119px" viewBox="0 0 477 119" version="1.1" xmlns="http://www.w3.org/2000/svg" xmlns:xlink="http://www.w3.org/1999/xlink">
    <!-- Generator: Sketch 3.8.3 (29802) - http://www.bohemiancoding.com/sketch -->
    <title>TC logo blue</title>
    <desc>Created with Sketch.</desc>
    <defs></defs>
    <g id="TC-Library" stroke="none" stroke-width="1" fill="none" fill-rule="evenodd">
        <g id="Logo" transform="translate(-136.000000, -349.000000)" fill="#00ADDC">
            <g id="TC-logo-blue" transform="translate(136.000000, 349.000000)">
                <path d="M357.7549,84.0741 C351.1579,84.0741 345.8119,79.6781 345.8119,69.8151 C345.8119,60.0111 351.1579,55.5561 357.7549,55.5561 C364.3499,55.5561 369.6969,59.9531 369.6969,69.8151 C369.6969,79.6201 364.3499,84.0741 357.7549,84.0741 L357.7549,84.0741 Z M378.4439,69.6771 C378.3849,54.8881 369.1469,48.2901 357.7549,48.2901 C346.3249,48.2901 337.0599,55.0151 337.0599,69.8151 C337.0599,84.7051 344.8079,91.3401 356.0299,91.3401 C361.8849,91.3401 366.4989,88.5741 369.9909,84.7781 L369.9939,88.9211 C369.9939,90.3371 371.8829,91.4861 374.2139,91.4861 C376.5459,91.4861 378.4359,90.3371 378.4359,88.9211 L378.4439,69.6771 Z" id="Fill-1"></path>
                <path d="M201.6186,84.0741 C195.0216,84.0741 189.6756,79.6201 189.6756,69.8151 C189.6756,59.9531 195.0216,55.5561 201.6186,55.5561 C208.2136,55.5561 213.5606,60.0111 213.5606,69.8151 C213.5606,79.6781 208.2136,84.0741 201.6186,84.0741 M201.6186,48.2901 C190.2246,48.2901 180.9866,54.8881 180.9276,69.6771 L180.9246,69.6771 L180.9366,101.2001 C180.9366,102.6171 182.8266,103.7651 185.1576,103.7651 C187.4886,103.7651 189.3786,102.6171 189.3786,101.2001 L189.3846,84.7841 C192.8776,88.5781 197.4896,91.3401 203.3416,91.3401 C214.5646,91.3401 222.3116,84.7051 222.3116,69.8151 C222.3116,55.0151 213.0466,48.2901 201.6186,48.2901" id="Fill-3"></path>
                <path d="M175.5693,50.8551 C175.5693,49.4391 173.6793,48.2901 171.3473,48.2901 C169.0163,48.2901 167.1273,49.4391 167.1273,50.8551 L167.1273,88.9211 C167.1273,90.3371 169.0163,91.4861 171.3473,91.4861 C173.6793,91.4861 175.5693,90.3371 175.5693,88.9211 L175.5693,50.8551 Z" id="Fill-5"></path>
                <path d="M144.0281,37.2644 L108.8641,37.2644 C107.4471,37.2644 106.2991,39.1534 106.2991,41.4834 C106.2991,43.8134 107.4471,45.7004 108.8641,45.7004 L122.2241,45.7004 L122.2241,88.9204 C122.2241,90.3374 124.1141,91.4854 126.4451,91.4854 C128.7761,91.4854 130.6661,90.3374 130.6661,88.9204 L130.6661,45.7004 L144.0281,45.7004 C145.4441,45.7004 146.5911,43.8134 146.5911,41.4834 C146.5911,39.1534 145.4441,37.2644 144.0281,37.2644" id="Fill-7"></path>
                <path d="M408.6045,85.1916 C407.7995,83.0036 407.0695,81.9166 404.6905,82.4576 C403.1275,82.8116 401.3605,82.9526 399.9815,82.9526 C397.2735,82.9526 395.0715,80.7506 395.0715,78.0426 L395.0715,74.6826 C395.0715,74.6326 395.0665,56.6726 395.0665,56.6726 L404.5145,56.6726 C405.9305,56.6726 407.0795,55.0706 407.0795,53.0926 C407.0795,51.1146 405.9305,49.5116 404.5145,49.5116 L395.0665,49.5116 L395.0665,42.2446 C395.0665,40.8286 393.1755,39.6796 390.8455,39.6796 C388.5145,39.6796 386.6245,40.8286 386.6245,42.2446 L386.6245,49.5116 L381.0105,49.5116 C379.5955,49.5116 378.4465,51.1146 378.4465,53.0926 C378.4465,55.0706 379.5955,56.6726 381.0105,56.6726 L386.6245,56.6726 L386.5885,78.0426 C386.5885,85.4266 392.5965,91.4346 399.9815,91.4346 C402.5505,91.4346 404.4205,91.0536 406.9835,90.1536 C408.8095,89.4176 409.7065,88.1866 408.6045,85.1916" id="Fill-9"></path>
                <path d="M429.4599,48.2896 C418.0309,48.2896 408.7659,55.0156 408.7659,69.8146 C408.7659,84.7046 418.0309,91.3406 429.4599,91.3406 C440.8889,91.3406 450.1529,84.6156 450.1529,69.8146 C450.1529,54.9266 440.8889,48.2896 429.4599,48.2896 M441.4019,69.8146 C441.4019,79.6206 436.0559,84.0736 429.4599,84.0736 C422.8639,84.0736 417.5169,79.6786 417.5169,69.8146 C417.5169,60.0106 422.8639,55.5556 429.4599,55.5556 C436.0559,55.5556 441.4019,59.9526 441.4019,69.8146" id="Fill-11"></path>
                <path d="M313.0405,55.5561 C318.7415,55.5561 323.5015,58.8491 324.6905,66.1081 L301.3935,66.1081 C302.5875,58.8881 307.3435,55.5561 313.0405,55.5561 M313.0405,48.2901 C301.6105,48.2901 292.3455,55.0151 292.3455,69.8151 C292.3455,84.7051 301.6105,91.3401 313.0405,91.3401 C319.7565,91.3401 325.6535,89.2601 329.6105,85.0291 C330.5435,84.1221 330.1015,82.1171 328.6085,80.5831 C327.1145,79.0481 325.1505,78.5391 324.2185,79.4471 L323.5135,80.1091 C320.7165,82.7951 316.5655,84.0741 313.0405,84.0741 C307.0365,84.0741 302.0825,80.4161 301.2385,72.3251 L330.8935,72.3251 C332.7325,72.3251 333.7335,70.6801 333.7335,69.8151 C333.7335,54.9271 324.4695,48.2901 313.0405,48.2901" id="Fill-13"></path>
                <path d="M234.8029,63.6948 C234.8029,75.0208 237.8919,84.2038 247.5949,84.2038 C253.3239,84.2038 256.7599,80.9768 258.6039,76.0198 C259.0879,74.6578 261.3139,74.1758 263.5579,74.9748 C265.7999,75.7718 267.2209,77.5438 266.7339,78.9078 C263.8049,86.4118 257.9239,91.3838 247.5949,91.3838 C231.2499,91.3838 226.0459,78.9878 226.0459,63.6948 C226.0459,48.4018 231.2499,36.0058 247.5949,36.0058 C257.9239,36.0058 263.8049,40.9788 266.7339,48.4818 C267.2209,49.8458 265.7999,51.6178 263.5579,52.4158 C261.3139,53.2148 259.0879,52.7318 258.6039,51.3698 C256.7599,46.4138 253.3239,43.1858 247.5949,43.1858 C237.8919,43.1858 234.8029,52.3688 234.8029,63.6948" id="Fill-15"></path>
                <path d="M161.4037,49.3327 C158.8397,48.4317 156.9697,48.0507 154.4017,48.0507 C145.3097,48.0507 141.0097,54.0587 141.0097,61.4427 L141.0447,88.8697 C141.0447,90.2847 142.9337,91.4347 145.2657,91.4347 C147.5967,91.4347 149.4857,90.2847 149.4857,88.8697 L149.4907,61.4427 C149.4907,57.2847 151.6937,55.3407 154.4017,55.3407 C155.7797,55.3407 157.4517,55.7107 158.5827,56.1937 C160.8247,57.1537 161.9727,57.1517 163.0237,54.2937 C164.1257,51.2977 163.2307,50.0687 161.4037,49.3327" id="Fill-17"></path>
                <path d="M291.212,49.3327 C288.648,48.4317 286.778,48.0507 284.21,48.0507 C275.118,48.0507 270.818,54.0587 270.818,61.4427 L270.853,88.8697 C270.853,90.2847 272.742,91.4347 275.074,91.4347 C277.405,91.4347 279.294,90.2847 279.294,88.8697 L279.299,61.4427 C279.299,57.2847 281.502,55.3407 284.21,55.3407 C285.588,55.3407 287.26,55.7107 288.391,56.1937 C290.633,57.1537 291.781,57.1517 292.832,54.2937 C293.934,51.2977 293.039,50.0687 291.212,49.3327" id="Fill-19"></path>
                <path d="M474.6047,49.3327 C472.0407,48.4317 470.1707,48.0507 467.6027,48.0507 C458.5107,48.0507 454.2107,54.0587 454.2107,61.4427 L454.2457,88.8697 C454.2457,90.2847 456.1347,91.4347 458.4667,91.4347 C460.7977,91.4347 462.6867,90.2847 462.6867,88.8697 L462.6917,61.4427 C462.6917,57.2847 464.8947,55.3407 467.6027,55.3407 C468.9807,55.3407 470.6527,55.7107 471.7827,56.1937 C474.0257,57.1537 475.1737,57.1517 476.2247,54.2937 C477.3267,51.2977 476.4317,50.0687 474.6047,49.3327" id="Fill-21"></path>
                <path d="M176.4329,39.698 C176.4329,36.89 174.1569,34.614 171.3489,34.614 C168.5399,34.614 166.2639,36.89 166.2639,39.698 C166.2639,42.506 168.5399,44.782 171.3489,44.782 C174.1569,44.782 176.4329,42.506 176.4329,39.698" id="Fill-24"></path>
                <path d="M40.2542,118.274 C38.5002,118.274 36.9112,117.241 36.2002,115.638 C32.6922,107.73 26.9572,99.588 20.8842,90.967 C13.7192,80.797 6.3102,70.279 2.0812,59.28 C-2.9488,46.2 1.2922,33.289 13.1482,25.584 C24.2982,18.338 41.6632,17.08 53.2752,28.693 C56.7532,32.172 58.6692,36.795 58.6692,41.714 C58.6692,51.868 50.4082,60.129 40.2542,60.129 C30.1002,60.129 21.8392,51.868 21.8392,41.714 C21.8392,39.265 23.8252,37.28 26.2742,37.28 C28.7232,37.28 30.7092,39.265 30.7092,41.714 C30.7092,46.978 34.9912,51.26 40.2542,51.26 C45.5172,51.26 49.7992,46.978 49.7992,41.714 C49.7992,39.165 48.8062,36.768 47.0032,34.965 C40.7382,28.699 28.7572,26.02 17.9822,33.022 C9.7182,38.392 6.8682,47.017 10.3592,56.097 C14.1952,66.069 21.2812,76.13 28.1362,85.859 C32.5442,92.118 36.7822,98.134 40.2542,104.151 C43.7262,98.134 47.9642,92.119 52.3712,85.86 C62.5622,71.395 73.0992,56.437 73.0992,41.714 C73.0992,23.604 58.3652,8.87 40.2542,8.87 C31.6892,8.87 23.5822,12.147 17.4272,18.1 C15.6662,19.801 12.8582,19.755 11.1562,17.994 C9.4532,16.233 9.5002,13.426 11.2612,11.723 C19.0802,4.163 29.3762,0 40.2542,0 C63.2562,0 81.9682,18.713 81.9682,41.714 C81.9682,59.248 70.6082,75.374 59.6232,90.968 C53.5512,99.589 47.8162,107.73 44.3082,115.638 C43.5972,117.241 42.0082,118.274 40.2542,118.274" id="Fill-26"></path>
            </g>
        </g>
    </g>
</svg>